<svg viewBox="0 0 393 300" fill="none" xmlns="http://www.w3.org/2000/svg">
    <g clip-path="url(#clip0)">
        <path opacity="0.1" d="M384.666 81.0545C380.79 72.0523 375.55 63.7011 369.13 56.295L153.541 54.1699L331.042 29.2397C319.575 24.6746 307.367 22.2534 295.026 22.0967C278.046 8.52392 257.139 0.795161 235.413 0.060113C213.688 -0.674935 192.306 5.623 174.448 18.0171C160.174 10.6767 144.35 6.8616 128.3 6.89084C80.3976 6.89084 40.4841 40.0692 31.5312 84.0623L384.666 81.0545Z" fill="#FF1300"/>
        <path opacity="0.1" d="M392.247 117.825C392.258 105.894 389.978 94.0715 385.53 83L11.8895 122.22C8.05017 129.189 5.11277 136.618 3.14804 144.328L118.861 161.573L0.5 174.15C4.06039 223.954 46.7554 263.282 98.9114 263.282C125.166 263.282 149.024 253.316 166.7 237.065C184.431 253.624 208.52 263.808 235.056 263.808C274.431 263.808 308.414 241.389 324.24 208.975C355.99 198.898 380.653 173.597 389.094 141.943L242.77 119.249H392.232C392.239 118.775 392.247 118.3 392.247 117.825Z" fill="#FF1300"/>
        <path opacity="0.1" d="M10.9251 275.318C16.2137 275.318 20.5011 274.729 20.5011 274.002C20.5011 273.275 16.2137 272.685 10.9251 272.685C5.63643 272.685 1.34912 273.275 1.34912 274.002C1.34912 274.729 5.63643 275.318 10.9251 275.318Z" fill="#FF1300"/>
        <path opacity="0.1" d="M47.6082 279.038C52.8969 279.038 57.1842 278.449 57.1842 277.722C57.1842 276.994 52.8969 276.405 47.6082 276.405C42.3195 276.405 38.0322 276.994 38.0322 277.722C38.0322 278.449 42.3195 279.038 47.6082 279.038Z" fill="#FF1300"/>
        <path opacity="0.1" d="M90.8191 274.002C96.1078 274.002 100.395 273.412 100.395 272.685C100.395 271.958 96.1078 271.369 90.8191 271.369C85.5305 271.369 81.2432 271.958 81.2432 272.685C81.2432 273.412 85.5305 274.002 90.8191 274.002Z" fill="#FF1300"/>
        <path opacity="0.1" d="M32.9255 289.248C36.6861 289.248 39.7347 288.83 39.7347 288.314C39.7347 287.798 36.6861 287.379 32.9255 287.379C29.1648 287.379 26.1162 287.798 26.1162 288.314C26.1162 288.83 29.1648 289.248 32.9255 289.248Z" fill="#FF1300"/>
        <path opacity="0.1" d="M71.0031 288.314C74.7637 288.314 77.8123 287.895 77.8123 287.379C77.8123 286.863 74.7637 286.445 71.0031 286.445C67.2424 286.445 64.1938 286.863 64.1938 287.379C64.1938 287.895 67.2424 288.314 71.0031 288.314Z" fill="#FF1300"/>
        <path d="M47.8161 277.425C47.8161 277.425 34.383 233.395 49.9152 215.76C61.5384 202.564 74.7267 204.144 80.6347 205.776C82.1634 206.183 83.5853 206.918 84.802 207.929C86.0187 208.94 87.0011 210.203 87.6813 211.632C89.7471 216.082 89.3725 223.318 74.7934 231.759C50.3825 245.893 48.8656 265.279 48.8656 265.279L47.8161 277.425Z" fill="#FF1300"/>
        <path d="M78.5319 212.021C78.5319 212.021 38.9374 224.401 47.8161 277.425" stroke="#565987" stroke-miterlimit="10"/>
        <path d="M55.4082 216.461C55.4082 216.461 60.86 220.132 59.1169 225.655" stroke="#565987" stroke-miterlimit="10"/>
        <path d="M74.5597 219.724C74.5597 219.724 71.2218 216.335 67.1719 218.204" stroke="#565987" stroke-miterlimit="10"/>
        <path d="M58.909 236.785C58.909 236.785 53.0566 233.818 51.5435 237.526" stroke="#565987" stroke-miterlimit="10"/>
        <path d="M44.4263 242.971C44.4263 242.971 48.8211 242.622 48.9027 244.725" stroke="#565987" stroke-miterlimit="10"/>
        <path d="M47.2817 277.777C47.2817 277.777 63.0142 245.775 67.3349 246.475C69.3858 246.809 70.3316 248.827 70.7618 250.855C71.2949 253.485 70.9955 256.215 69.9051 258.666C67.6798 263.766 61.6642 273.501 47.2817 277.777Z" fill="#FF1300"/>
        <path d="M67.2052 252.55C67.2052 252.55 50.6939 276.494 47.5044 277.544" stroke="#565987" stroke-miterlimit="10"/>
        <path d="M68.7259 256.285H64.8726" stroke="#565987" stroke-miterlimit="10"/>
        <path d="M64.1086 265.045L58.0708 265.305" stroke="#565987" stroke-miterlimit="10"/>
        <path d="M60.4331 258.039L61.0896 261.184" stroke="#565987" stroke-miterlimit="10"/>
        <path d="M54.0098 267.615L54.1284 270.475" stroke="#565987" stroke-miterlimit="10"/>
        <path d="M47.7382 277.777C47.7382 277.777 32.0058 245.775 27.6851 246.475C25.6342 246.809 24.6884 248.827 24.2582 250.855C23.7292 253.478 24.03 256.2 25.1186 258.644C27.3476 263.766 33.3446 273.501 47.7382 277.777Z" fill="#FF1300"/>
        <path d="M27.8037 252.55C27.8037 252.55 44.315 276.494 47.5045 277.544" stroke="#565987" stroke-miterlimit="10"/>
        <path d="M26.2871 256.285H30.1405" stroke="#565987" stroke-miterlimit="10"/>
        <path d="M30.9004 265.045L36.9419 265.305" stroke="#565987" stroke-miterlimit="10"/>
        <path d="M34.5798 258.039L33.9233 261.184" stroke="#565987" stroke-miterlimit="10"/>
        <path d="M41.003 267.615L40.8843 270.475" stroke="#565987" stroke-miterlimit="10"/>
        <path d="M74.7489 285.25C75.1778 284.902 75.4908 284.431 75.6464 283.9C75.7153 283.634 75.6906 283.352 75.5765 283.101C75.4624 282.851 75.2658 282.647 75.0196 282.524C74.4447 282.302 73.8291 282.702 73.3655 283.103C72.9019 283.504 72.3641 283.967 71.7559 283.882C72.0664 283.596 72.2978 283.235 72.4277 282.833C72.5577 282.432 72.5818 282.003 72.4977 281.59C72.4721 281.418 72.4003 281.257 72.29 281.123C71.971 280.781 71.3925 280.93 71.0105 281.197C69.794 282.05 69.4565 283.7 69.4491 285.187C69.3823 284.642 69.3748 284.091 69.4268 283.544C69.4268 282.995 69.2711 282.383 68.8075 282.09C68.5206 281.933 68.1963 281.856 67.8691 281.868C67.3203 281.868 66.7157 281.901 66.3411 282.302C65.8776 282.799 65.9962 283.63 66.4005 284.179C66.8514 284.687 67.3857 285.115 67.9804 285.443C68.4263 285.715 68.8063 286.082 69.093 286.519C69.1262 286.58 69.1536 286.645 69.1746 286.712H72.5978C73.3785 286.326 74.1023 285.834 74.7489 285.25Z" fill="#FF1300"/>
        <path d="M14.8046 272.362C15.2339 272.014 15.5469 271.543 15.7021 271.012C15.7705 270.746 15.7456 270.463 15.6316 270.212C15.5177 269.961 15.3214 269.757 15.0753 269.633C14.5004 269.414 13.8885 269.815 13.4212 270.215C12.9539 270.616 12.4235 271.076 11.8116 270.99C12.123 270.705 12.355 270.344 12.485 269.942C12.615 269.54 12.6386 269.112 12.5534 268.698C12.5255 268.528 12.4526 268.367 12.342 268.235C12.023 267.893 11.4444 268.038 11.0624 268.309C9.84597 269.162 9.50847 270.812 9.50106 272.299C9.43424 271.753 9.42678 271.201 9.47881 270.653C9.47881 270.104 9.32675 269.496 8.86316 269.203C8.57491 269.045 8.24945 268.968 7.92114 268.98C7.37595 268.958 6.76772 269.013 6.39313 269.414C5.92954 269.911 6.05193 270.742 6.45248 271.268C6.90285 271.78 7.4387 272.209 8.03611 272.537C8.4831 272.807 8.86341 273.175 9.14873 273.612C9.18227 273.674 9.2108 273.739 9.23403 273.805H12.6572C13.4351 273.424 14.1575 272.939 14.8046 272.362Z" fill="#FF1300"/>
        <path d="M34.7835 285.25C35.2125 284.902 35.5255 284.431 35.681 283.9C35.7499 283.634 35.7253 283.352 35.6112 283.101C35.4971 282.851 35.3005 282.647 35.0543 282.524C34.4794 282.302 33.8638 282.702 33.4002 283.103C32.9366 283.504 32.3988 283.967 31.7906 283.882C32.101 283.596 32.3325 283.235 32.4624 282.833C32.5924 282.432 32.6164 282.003 32.5323 281.59C32.5068 281.418 32.435 281.257 32.3246 281.123C32.0057 280.781 31.4271 280.93 31.0451 281.197C29.8287 282.05 29.4912 283.7 29.4837 285.187C29.4169 284.642 29.4095 284.091 29.4615 283.544C29.4615 282.995 29.3094 282.383 28.8458 282.09C28.5575 281.933 28.2321 281.856 27.9038 281.868C27.3586 281.868 26.7504 281.901 26.3758 282.302C25.9122 282.799 26.0309 283.63 26.4352 284.179C26.8861 284.687 27.4204 285.115 28.0151 285.443C28.461 285.715 28.841 286.082 29.1277 286.519C29.1609 286.58 29.1882 286.645 29.2093 286.712H32.6325C33.4131 286.326 34.137 285.834 34.7835 285.25Z" fill="#FF1300"/>
        <path d="M91.4419 259.196C91.4419 259.196 92.7251 260.876 90.8485 263.41C88.9718 265.943 87.429 268.083 88.0521 269.663C88.0521 269.663 90.8818 264.956 93.185 264.889C95.4881 264.823 93.9749 262.026 91.4419 259.196Z" fill="#FF1300"/>
        <path opacity="0.1" d="M91.4419 259.196C91.5536 259.359 91.6423 259.536 91.7052 259.723C93.9527 262.364 95.1469 264.826 92.9884 264.889C90.9746 264.949 88.5639 268.546 87.9854 269.455C88.0039 269.525 88.0261 269.592 88.0521 269.663C88.0521 269.663 90.8819 264.956 93.185 264.889C95.4881 264.823 93.975 262.026 91.4419 259.196Z" fill="black"/>
        <path d="M93.8265 261.336C93.8265 261.926 93.7597 262.405 93.6781 262.405C93.5965 262.405 93.5298 261.926 93.5298 261.336C93.5298 260.747 93.6151 261.025 93.6967 261.025C93.7783 261.025 93.8265 260.747 93.8265 261.336Z" fill="#FFD037"/>
        <path d="M94.6465 262.041C94.1273 262.323 93.6748 262.493 93.6377 262.412C93.6006 262.33 93.9863 262.041 94.5056 261.77C95.0248 261.5 94.8171 261.692 94.8579 261.77C94.8987 261.848 95.1657 261.759 94.6465 262.041Z" fill="#FFD037"/>
        <path d="M84.6626 259.196C84.6626 259.196 83.3794 260.876 85.256 263.41C87.1326 265.943 88.6792 268.083 88.0524 269.663C88.0524 269.663 85.2226 264.956 82.9195 264.889C80.6164 264.823 82.1444 262.026 84.6626 259.196Z" fill="#FF1300"/>
        <path opacity="0.1" d="M84.6626 259.196C84.5514 259.359 84.4639 259.536 84.403 259.723C82.1555 262.364 80.9576 264.826 83.1161 264.889C85.1299 264.949 87.5443 268.546 88.1229 269.455C88.1006 269.525 88.0784 269.592 88.0524 269.663C88.0524 269.663 85.2226 264.956 82.9195 264.889C80.6164 264.823 82.1444 262.026 84.6626 259.196Z" fill="black"/>
        <path d="M82.2778 261.336C82.2778 261.926 82.3446 262.405 82.4262 262.405C82.5078 262.405 82.5745 261.926 82.5745 261.336C82.5745 260.747 82.4929 261.025 82.4114 261.025C82.3298 261.025 82.2778 260.747 82.2778 261.336Z" fill="#FFD037"/>
        <path d="M81.4582 262.041C81.9774 262.323 82.4299 262.493 82.4707 262.412C82.5115 262.33 82.1183 262.041 81.6028 261.77C81.0873 261.5 81.2876 261.692 81.2319 261.77C81.1763 261.848 80.9426 261.759 81.4582 262.041Z" fill="#FFD037"/>
        <path d="M82.6855 269.44C82.6855 269.44 86.2756 269.332 87.3549 268.561C88.4341 267.79 92.8735 266.87 93.1442 268.105C93.4149 269.34 98.533 274.246 94.4831 274.28C90.4331 274.313 85.074 273.649 83.9947 272.993C82.9155 272.337 82.6855 269.44 82.6855 269.44Z" fill="#A8A8A8"/>
        <path opacity="0.2" d="M94.5572 273.85C90.5073 273.883 85.1444 273.219 84.0652 272.563C83.2419 272.062 82.9155 270.267 82.8079 269.436H82.6855C82.6855 269.436 82.9155 272.333 83.9947 272.989C85.074 273.646 90.4331 274.31 94.4831 274.276C95.655 274.276 96.0556 273.85 96.0333 273.234C95.8664 273.612 95.4251 273.842 94.5572 273.85Z" fill="black"/>
        <path opacity="0.1" d="M227.62 300C295.094 300 349.793 297.519 349.793 294.459C349.793 291.399 295.094 288.918 227.62 288.918C160.145 288.918 105.446 291.399 105.446 294.459C105.446 297.519 160.145 300 227.62 300Z" fill="#FF1300"/>
        <path d="M215.173 128.801C215.173 128.801 222.962 143.536 223.566 145.639C223.724 146.222 224.063 146.741 224.535 147.118C225.008 147.496 225.588 147.713 226.192 147.738C226.192 147.738 233.951 149.592 235.805 149.841C237.659 150.089 253.733 151.446 253.733 151.446C253.733 151.446 257.813 151.573 258.306 150.089C258.758 148.732 266.639 141.6 271.201 147.823C271.622 148.399 271.901 149.065 272.015 149.769C272.13 150.473 272.077 151.193 271.861 151.873C271.023 154.543 269.302 158.782 267.455 156.145C264.859 152.437 261.84 153.479 261.84 155.456C261.84 157.432 257.687 156.698 256.329 156.976C255.587 157.128 253.036 157.807 250.829 158.4C248.268 159.093 245.644 159.529 242.996 159.702C238.616 159.988 232.159 160.225 229.871 159.361C227.108 158.311 222.29 158.07 220.228 158.015C219.545 157.998 218.886 157.761 218.348 157.34C215.486 155.099 213.065 152.346 211.209 149.221C207.993 143.658 201.381 132.139 201.826 128.801C202.271 125.463 215.173 128.801 215.173 128.801Z" fill="#BB6BD9"/>
        <path opacity="0.05" d="M215.173 128.801C215.173 128.801 222.962 143.536 223.566 145.639C223.724 146.222 224.063 146.741 224.535 147.118C225.008 147.496 225.588 147.713 226.192 147.738C226.192 147.738 233.951 149.592 235.805 149.841C237.659 150.089 253.733 151.446 253.733 151.446C253.733 151.446 257.813 151.573 258.306 150.089C258.758 148.732 266.639 141.6 271.201 147.823C271.622 148.399 271.901 149.065 272.015 149.769C272.13 150.473 272.077 151.193 271.861 151.873C271.023 154.543 269.302 158.782 267.455 156.145C264.859 152.437 261.84 153.479 261.84 155.456C261.84 157.432 257.687 156.698 256.329 156.976C255.587 157.128 253.036 157.807 250.829 158.4C248.268 159.093 245.644 159.529 242.996 159.702C238.616 159.988 232.159 160.225 229.871 159.361C227.108 158.311 222.29 158.07 220.228 158.015C219.545 157.998 218.886 157.761 218.348 157.34C215.486 155.099 213.065 152.346 211.209 149.221C207.993 143.658 201.381 132.139 201.826 128.801C202.271 125.463 215.173 128.801 215.173 128.801Z" fill="#BB6BD9" fill-opacity="0.92"/>
        <path d="M334.862 266.825C334.848 274.706 331.794 282.277 326.336 287.962C320.878 293.647 313.438 297.007 305.564 297.341C297.69 297.676 289.991 294.96 284.071 289.759C278.15 284.558 274.465 277.273 273.782 269.421C273.738 268.924 273.705 268.427 273.69 267.938V267.912C273.675 267.544 273.667 267.173 273.667 266.799C273.667 258.684 276.891 250.902 282.629 245.164C288.367 239.426 296.15 236.202 304.265 236.202C312.379 236.202 320.162 239.426 325.9 245.164C331.638 250.902 334.862 258.684 334.862 266.799V266.825Z" fill="#65617D"/>
        <path d="M304.265 283.496C313.482 283.496 320.954 276.024 320.954 266.807C320.954 257.589 313.482 250.117 304.265 250.117C295.047 250.117 287.575 257.589 287.575 266.807C287.575 276.024 295.047 283.496 304.265 283.496Z" fill="#DCE0ED"/>
        <path d="M304.265 276.82C309.795 276.82 314.278 272.337 314.278 266.807C314.278 261.276 309.795 256.793 304.265 256.793C298.734 256.793 294.251 261.276 294.251 266.807C294.251 272.337 298.734 276.82 304.265 276.82Z" fill="#65617D"/>
        <path d="M223.911 208.702L150.233 210.185V199.326C150.893 190.585 159.876 187.518 168.035 186.557C174.414 185.833 180.872 186.317 187.072 187.985C202.704 192.124 212.662 192.925 217.569 193.003C218.646 193.019 219.684 193.406 220.509 194.1C221.333 194.793 221.893 195.75 222.093 196.808C222.327 198.05 222.557 199.404 222.772 200.739C222.935 201.785 223.091 202.816 223.232 203.777C223.64 206.543 223.911 208.702 223.911 208.702Z" fill="#65617D"/>
        <path d="M282.691 268.784H129.635C128.453 268.796 127.294 268.46 126.301 267.818C125.309 267.177 124.527 266.257 124.053 265.175C122.899 262.419 124.513 260.661 126.234 259.63C129.755 257.543 132.425 254.277 133.77 250.41C135.402 245.589 136.996 238.046 137.623 226.259C138.268 214.068 142.682 208.042 147.451 205.119C153.612 201.351 160.365 202.764 160.365 202.764L222.423 203.261C223.528 203.762 224.55 204.429 225.454 205.238C230.983 210.386 222.92 217.106 222.92 217.106C205.612 235.401 218.715 253.945 218.715 253.945H250.469C256.402 253.976 262.204 252.199 267.103 248.853C271.394 245.886 273.037 243.019 273.697 241.283C274.186 239.956 274.683 238.632 275.277 237.348C283.607 219.283 273.56 189.895 269.224 178.906C268.149 176.173 267.425 174.578 267.425 174.578L277.383 173.836L283.688 173.358H283.751C297.629 197.294 302.788 221.89 304.52 240.115C304.683 241.832 304.817 243.497 304.924 245.096C305.121 248.135 304.691 251.182 303.663 254.049C302.634 256.915 301.027 259.54 298.943 261.76C296.859 263.981 294.341 265.75 291.545 266.958C288.75 268.166 285.736 268.787 282.691 268.784Z" fill="#FF1300"/>
        <path opacity="0.1" d="M223.236 203.777H150.233V200.739H222.776C222.939 201.767 223.095 202.798 223.236 203.777Z" fill="black"/>
        <path opacity="0.1" d="M225.457 205.26H148.041C147.84 205.261 147.64 205.22 147.455 205.142C153.615 201.373 160.369 202.786 160.369 202.786L222.427 203.283C223.532 203.784 224.554 204.451 225.457 205.26Z" fill="black"/>
        <path d="M226.103 201.462H120.952C120.115 201.462 119.436 202.142 119.436 202.979V202.983C119.436 203.821 120.115 204.5 120.952 204.5H226.103C226.94 204.5 227.619 203.821 227.619 202.983V202.979C227.619 202.142 226.94 201.462 226.103 201.462Z" fill="#DCE0ED"/>
        <path opacity="0.1" d="M304.52 240.122C300.993 243.957 298.397 245.467 298.519 241.42C298.89 229.182 277.379 173.847 277.379 173.847L283.74 173.365C297.622 197.283 302.784 221.879 304.52 240.122Z" fill="black"/>
        <path opacity="0.1" d="M334.676 263.454C331.023 264.329 326.517 265.219 320.954 266.05C318.884 266.354 316.659 266.646 314.278 266.925C308.593 267.6 302.017 268.19 294.421 268.643C292.27 268.771 290.037 268.889 287.72 268.995C283.381 269.193 278.736 269.344 273.786 269.447L273.693 267.964V267.938C280.61 265.145 291.495 257.694 293.246 238.287C297.617 236.602 302.317 235.943 306.983 236.361C311.649 236.778 316.157 238.261 320.159 240.696C324.162 243.13 327.553 246.45 330.07 250.401C332.587 254.352 334.165 258.827 334.68 263.484L334.676 263.454Z" fill="black"/>
        <path d="M267.922 268.784C267.922 268.784 303.044 264.971 290.946 211.458C290.946 211.458 308.299 227.368 319.096 236.21C329.892 245.051 349.136 257.242 349.136 257.242C349.136 257.242 337.647 267.979 267.922 268.784Z" fill="#FF1300"/>
        <path opacity="0.1" d="M267.922 268.784C267.922 268.784 303.044 264.971 290.946 211.458C290.946 211.458 308.299 227.368 319.096 236.21C329.892 245.051 349.136 257.242 349.136 257.242C349.136 257.242 337.647 267.979 267.922 268.784Z" fill="white"/>
        <path d="M174.091 297.404C190.99 297.404 204.688 283.705 204.688 266.807C204.688 249.908 190.99 236.21 174.091 236.21C157.193 236.21 143.494 249.908 143.494 266.807C143.494 283.705 157.193 297.404 174.091 297.404Z" fill="#65617D"/>
        <path d="M174.091 283.496C183.308 283.496 190.781 276.024 190.781 266.807C190.781 257.589 183.308 250.117 174.091 250.117C164.874 250.117 157.402 257.589 157.402 266.807C157.402 276.024 164.874 283.496 174.091 283.496Z" fill="#DCE0ED"/>
        <path d="M174.091 276.82C179.622 276.82 184.105 272.337 184.105 266.807C184.105 261.276 179.622 256.793 174.091 256.793C168.561 256.793 164.078 261.276 164.078 266.807C164.078 272.337 168.561 276.82 174.091 276.82Z" fill="#65617D"/>
        <path opacity="0.1" d="M208.397 257.617C208.397 237.86 192.705 221.842 173.349 221.842C153.993 221.842 138.302 237.86 138.302 257.617C138.302 258.452 138.33 259.279 138.387 260.098H208.312C208.369 259.279 208.397 258.452 208.397 257.617Z" fill="black"/>
        <path d="M207.099 257.001C207.099 237.975 191.99 222.55 173.35 222.55C154.709 222.55 139.6 237.975 139.6 257.001C139.6 257.806 139.63 258.599 139.682 259.389H207.018C207.07 258.599 207.099 257.806 207.099 257.001Z" fill="#FF1300"/>
        <path opacity="0.1" d="M207.099 257.001C207.099 257.553 207.099 258.113 207.058 258.648C207.058 258.896 207.032 259.141 207.018 259.389H139.682C139.682 259.141 139.652 258.896 139.641 258.648C139.615 258.102 139.6 257.535 139.6 257.001C139.6 237.975 154.709 222.55 173.35 222.55C191.99 222.55 207.099 237.975 207.099 257.001Z" fill="white"/>
        <path opacity="0.1" d="M207.058 258.666C207.058 258.915 207.032 259.159 207.017 259.408H139.681C139.681 259.159 139.652 258.915 139.641 258.666H207.058Z" fill="black"/>
        <path opacity="0.1" d="M211.549 260.131H128.793C126.607 260.131 124.835 261.902 124.835 264.086C124.835 266.271 126.607 268.042 128.793 268.042H211.549C213.735 268.042 215.507 266.271 215.507 264.086C215.507 261.902 213.735 260.131 211.549 260.131Z" fill="black"/>
        <path d="M211.549 259.389H128.793C126.607 259.389 124.835 261.16 124.835 263.345C124.835 265.529 126.607 267.3 128.793 267.3H211.549C213.735 267.3 215.507 265.529 215.507 263.345C215.507 261.16 213.735 259.389 211.549 259.389Z" fill="#DCE0ED"/>
        <path opacity="0.1" d="M298.484 207.795C300.72 206.784 300.469 201.401 297.924 195.772C295.379 190.143 291.503 186.399 289.267 187.41C287.031 188.421 287.282 193.804 289.827 199.433C292.372 205.062 296.248 208.806 298.484 207.795Z" fill="black"/>
        <path d="M298.855 207.423C301.09 206.412 300.84 201.029 298.295 195.4C295.75 189.771 291.874 186.027 289.638 187.038C287.402 188.049 287.653 193.432 290.198 199.061C292.743 204.69 296.619 208.434 298.855 207.423Z" fill="#DCE0ED"/>
        <path opacity="0.1" d="M283.685 173.365V179.177H272.373C271.32 179.178 270.268 179.093 269.228 178.924C268.152 176.191 267.429 174.596 267.429 174.596L277.387 173.855L283.685 173.365Z" fill="black"/>
        <path d="M283.684 178.42H272.373C262.437 178.42 254.385 171.003 254.385 161.816V160.277C254.385 151.109 262.437 143.677 272.373 143.677L283.684 144.704V178.42Z" fill="#FF1300"/>
        <path d="M265.048 153.505C265.048 153.505 271.816 157.121 267.922 163.24C267.922 163.24 263.145 171.073 255.635 170.331L252.902 153.505C252.902 153.505 261.896 152.67 265.048 153.505Z" fill="#FF1300"/>
        <path opacity="0.1" d="M262.448 153.178C263.524 153.219 264.577 153.501 265.53 154.003C266.482 154.505 267.31 155.214 267.952 156.079C269.157 157.748 269.877 160.18 267.93 163.24C267.93 163.24 263.153 171.073 255.643 170.331L252.909 153.505C252.909 153.505 258.535 152.967 262.448 153.178Z" fill="black"/>
        <path opacity="0.1" d="M283.314 144.704H285.495C287.326 144.704 289.083 145.431 290.378 146.727C291.673 148.022 292.4 149.778 292.4 151.61V171.518C292.4 173.35 291.673 175.106 290.378 176.401C289.083 177.696 287.326 178.424 285.495 178.424H283.314V144.704Z" fill="black"/>
        <path d="M283.685 144.704H285.865C287.697 144.704 289.453 145.431 290.748 146.727C292.043 148.022 292.771 149.778 292.771 151.61V171.518C292.771 173.35 292.043 175.106 290.748 176.401C289.453 177.696 287.697 178.424 285.865 178.424H283.685V144.704Z" fill="#DCE0ED"/>
        <path d="M203.375 188.007C203.375 188.007 205.122 188.645 207.455 189.535C211.164 190.963 216.393 193.047 218.21 194.19C220.028 195.332 226.804 197.209 231.877 198.529C235.638 199.503 239.511 199.981 243.397 199.949C247.343 199.912 252.123 199.875 253.444 199.875C253.674 199.873 253.905 199.891 254.133 199.927C255.52 200.157 255.465 201.088 255.431 201.31V201.359C247.272 206.302 237.381 228.432 236.765 232.141C236.302 234.923 232.226 242.633 230.216 246.32C229.541 247.555 229.103 248.337 229.103 248.337L231.577 251.178L238.746 254.394L245.544 257.361C245.544 257.361 252.717 257.731 252.839 257.361C252.961 256.99 252.961 253.159 252.961 253.159C252.088 252.595 251.26 251.965 250.484 251.275C248.839 249.842 247.311 248.281 245.915 246.605C241.961 241.906 249.872 232.883 249.872 232.883L265.078 213.104C265.078 213.104 266.313 210.879 272.247 201.978C278.181 193.077 272.247 188.256 272.247 188.256L261.803 183.92C243.69 177.141 221.841 171.707 221.841 171.707L221.53 171.666L216.898 171.088L203.375 188.007Z" fill="#BB6BD9"/>
        <path d="M250.043 254.394C250.043 254.394 251.341 255.925 250.369 256.063C249.397 256.2 246.846 255.647 246.846 255.647L230.664 247.117C230.664 247.117 228.903 245.863 228.487 248.322C228.072 250.781 227.79 250.548 227.79 250.548C227.79 250.548 225.658 255.135 227.79 256.085C229.923 257.034 242.733 260.791 242.733 260.791C242.733 260.791 261.325 265.012 263.086 260.142C264.848 255.273 259.934 256.111 259.934 256.111C259.934 256.111 253.814 254.627 251.726 251.66C251.711 251.66 248.7 252.495 250.043 254.394Z" fill="#444053"/>
        <path opacity="0.05" d="M272.232 188.256L261.788 183.92C243.675 177.141 221.826 171.707 221.826 171.707L221.515 171.666L216.883 171.088L203.375 188.007C203.375 188.007 205.122 188.645 207.455 189.535C211.164 190.963 216.393 193.047 218.21 194.19C220.028 195.332 226.804 197.209 231.877 198.529C235.638 199.503 239.511 199.981 243.397 199.949C247.343 199.912 252.123 199.875 253.443 199.875C253.674 199.873 253.905 199.891 254.133 199.927C255.52 200.157 255.465 201.088 255.431 201.31V201.359C247.272 206.302 237.381 228.432 236.765 232.141C236.302 234.923 232.226 242.633 230.216 246.32L229.945 246.817C229.407 246.728 228.736 246.92 228.498 248.322C228.079 250.778 227.801 250.548 227.801 250.548C227.801 250.548 225.669 255.135 227.801 256.085C229.934 257.034 242.733 260.791 242.733 260.791C242.733 260.791 261.325 265.012 263.086 260.142C264.848 255.273 259.934 256.111 259.934 256.111C259.934 256.111 253.814 254.627 251.726 251.66C251.541 251.714 251.36 251.781 251.185 251.861C250.966 251.683 250.732 251.49 250.484 251.275C248.839 249.842 247.311 248.281 245.915 246.605C241.961 241.906 249.872 232.883 249.872 232.883L265.078 213.104C265.078 213.104 266.313 210.879 272.247 201.978C278.181 193.077 272.232 188.256 272.232 188.256Z" fill="black"/>
        <path d="M190.922 105.295L191.486 106.007L191.801 106.404L193.766 108.877C193.766 108.877 198.458 110.383 202.571 111.359C206.855 112.371 210.508 112.812 207.604 110.391C205.801 108.889 205.683 106.374 206.339 103.678C206.892 101.603 207.683 99.5993 208.698 97.7068C208.844 97.4249 208.988 97.1504 209.132 96.8834C210.053 95.1796 211.073 93.5313 212.188 91.9471C209.551 90.121 206.816 88.4409 203.995 86.9143C200.598 85.1564 197.809 84.3887 199.578 87.8675C200.713 90.0927 200.342 92.5924 199.281 94.9845C199.2 95.1737 199.111 95.3554 199.018 95.552C198.066 97.4057 196.89 99.1357 195.517 100.703C194.11 102.354 192.574 103.889 190.922 105.295Z" fill="#BB6BD9"/>
        <path d="M214.413 161.79L216.927 164.086L219.356 173.432H215.303L210.826 167.609L214.413 161.79Z" fill="#444053"/>
        <path opacity="0.1" d="M210.826 167.609L213.534 171.129L215.303 173.432H219.356L218.941 171.833L217.172 165.024L216.927 164.086L214.413 161.79L210.978 167.361L210.826 167.609Z" fill="black"/>
        <path opacity="0.1" d="M210.826 167.609L213.534 171.129L215.303 173.432H219.356L218.941 171.833L217.172 165.024L216.927 164.086L214.413 161.79L210.978 167.361L210.826 167.609Z" fill="black"/>
        <path d="M197.353 192.202C197.353 192.202 199.099 192.84 201.432 193.73C205.141 195.158 210.37 197.242 212.188 198.384C214.005 199.527 220.781 201.403 225.854 202.723C229.615 203.699 233.488 204.178 237.374 204.148C241.32 204.111 246.1 204.073 247.421 204.073C247.652 204.072 247.882 204.089 248.11 204.125C249.497 204.355 249.442 205.286 249.408 205.509V205.557C241.249 210.501 231.358 232.631 230.742 236.339C230.279 239.121 226.203 246.831 224.193 250.518C223.518 251.753 223.08 252.536 223.08 252.536L225.554 255.376L232.719 258.588L239.517 261.555C239.517 261.555 246.69 261.926 246.812 261.555C246.935 261.184 246.935 257.353 246.935 257.353C246.062 256.79 245.234 256.16 244.457 255.469C242.812 254.037 241.284 252.475 239.888 250.8C235.935 246.101 243.845 237.077 243.845 237.077L259.051 217.299C259.051 217.299 260.286 215.074 266.22 206.173C272.154 197.272 266.22 192.45 266.22 192.45L256.704 187.01C241.869 177.986 220.974 172.794 220.974 172.794L220.662 172.753L216.03 172.175L197.353 192.202Z" fill="#BB6BD9" fill-opacity="0.92"/>
        <path opacity="0.1" d="M223.076 252.532L225.55 255.373L232.719 258.588L239.517 261.555C239.517 261.555 246.69 261.926 246.812 261.555C246.935 261.184 246.935 257.353 246.935 257.353C246.062 256.79 245.233 256.16 244.457 255.469C243.689 255.881 242.818 256.652 243.66 257.846C243.66 257.846 244.958 259.374 243.986 259.515C243.014 259.656 240.463 259.1 240.463 259.1L224.282 250.57L224.189 250.507C223.506 251.749 223.076 252.532 223.076 252.532Z" fill="black"/>
        <path d="M244.02 258.588C244.02 258.588 245.318 260.116 244.342 260.257C243.367 260.398 240.819 259.838 240.819 259.838L224.641 251.308C224.641 251.308 222.88 250.058 222.461 252.513C222.042 254.968 221.767 254.738 221.767 254.738C221.767 254.738 219.635 259.33 221.767 260.279C223.9 261.229 236.695 264.971 236.695 264.971C236.695 264.971 255.283 269.188 257.045 264.322C258.806 259.456 253.892 260.287 253.892 260.287C253.892 260.287 247.773 258.803 245.688 255.836C245.7 255.851 242.673 256.686 244.02 258.588Z" fill="#444053"/>
        <path opacity="0.1" d="M198.339 94.0425C200.483 95.526 203.754 97.8737 206.546 97.8737C207.267 97.8735 207.986 97.8164 208.697 97.7031C209.73 95.7071 210.896 93.7829 212.187 91.9434C212.187 91.9434 195.869 80.5687 199.578 87.8638C200.801 90.2893 199.596 91.4798 198.339 94.0425Z" fill="black"/>
        <path d="M193.195 83.7804C193.193 86.0071 193.75 88.1988 194.813 90.1553C195.876 92.1118 197.412 93.7708 199.281 94.9808C199.701 95.2545 200.137 95.5022 200.587 95.7226C203.186 97.019 206.136 97.4327 208.992 96.9009C211.847 96.3691 214.451 94.9209 216.408 92.7758C218.366 90.6307 219.571 87.9057 219.841 85.0139C220.11 82.1222 219.429 79.2215 217.902 76.7516C216.374 74.2817 214.082 72.3772 211.375 71.3271C208.667 70.277 205.691 70.1383 202.897 70.9323C200.103 71.7262 197.645 73.4094 195.894 75.7267C194.143 78.0439 193.196 80.8688 193.195 83.773V83.7804Z" fill="#BB6BD9" fill-opacity="0.92"/>
        <path opacity="0.1" d="M197.353 192.202C197.353 192.202 199.099 192.84 201.432 193.73C202.897 192.439 204.399 191.193 205.026 190.967C206.387 190.47 210.838 187.874 210.715 187.132C210.593 186.39 212.57 183.549 214.298 183.052C216.026 182.555 215.04 179.963 215.04 179.963C215.04 179.963 218.377 178.728 219.208 176.996C220.039 175.264 222.583 173.039 221.715 173.165C221.339 173.104 220.98 172.963 220.662 172.753L216.03 172.175L197.353 192.202Z" fill="black"/>
        <path d="M187.213 187.751C187.213 187.751 192.902 192.45 193.165 194.549C193.428 196.649 197.226 196.53 197.226 196.53C197.226 196.53 202.915 191.089 204.273 190.596C205.63 190.103 210.084 187.503 209.962 186.761C209.84 186.019 211.816 183.178 213.545 182.681C215.273 182.184 214.286 179.592 214.286 179.592C214.286 179.592 217.624 178.357 218.455 176.625C219.286 174.893 221.83 172.668 220.962 172.794C220.717 172.827 219.935 172.423 218.941 171.833C217.721 171.092 216.174 170.087 214.913 169.237C213.578 168.332 212.558 167.613 212.558 167.613C212.558 167.613 211.976 167.509 210.978 167.364C205.597 166.585 188.069 164.598 184.001 171.073C183.459 171.929 183.052 172.863 182.796 173.843C180.975 180.742 187.213 187.751 187.213 187.751Z" fill="#444053"/>
        <path opacity="0.1" d="M193.161 172.761C193.161 172.761 187.354 176.039 185.188 176.039C183.022 176.039 193.161 172.761 193.161 172.761Z" fill="black"/>
        <path opacity="0.1" d="M197.041 175.264C197.041 175.264 188.392 178.172 188.392 180.456C188.392 182.741 187.584 174.337 197.041 175.264Z" fill="black"/>
        <path opacity="0.1" d="M217.747 162.168L217.625 162.335C217.68 162.292 217.723 162.234 217.747 162.168Z" fill="black"/>
        <path opacity="0.1" d="M190.922 105.295L191.486 106.007L191.801 106.404L193.766 108.877C193.766 108.877 198.458 110.383 202.571 111.359C206.855 112.371 210.508 112.812 207.604 110.391C205.801 108.889 205.683 106.374 206.339 103.678L206.209 103.511C206.209 103.511 206.339 106.011 204.859 106.059C202.864 106.122 202.838 105.451 200.999 104.675C198.629 103.674 196.199 102.001 195.517 100.7C194.11 102.352 192.574 103.888 190.922 105.295Z" fill="black"/>
        <path opacity="0.1" d="M182.795 173.832C183.807 174.265 184.947 174.291 185.977 173.907C189.809 172.668 195.869 169.686 198.71 170.991C200.987 172.037 210.159 172.008 213.545 171.129C214.386 170.91 214.869 170.639 214.794 170.32C214.747 169.953 214.791 169.579 214.924 169.234C215.317 167.976 216.385 166.229 217.183 165.024L216.938 164.086L214.424 161.79L210.989 167.353C205.608 166.574 188.08 164.586 184.012 171.062C183.466 171.917 183.055 172.852 182.795 173.832Z" fill="black"/>
        <path d="M180.292 170.94C180.292 170.94 181.776 174.4 185.607 173.165C189.438 171.93 195.498 168.944 198.339 170.25C201.18 171.555 214.784 171.184 214.413 169.578C214.042 167.973 217.751 162.903 217.751 162.903C217.751 162.903 215.726 162.532 214.472 155.919C214.287 154.955 214.12 153.857 213.979 152.611C213.673 150.059 213.601 147.484 213.764 144.919C214.265 137.761 216.772 134.839 216.772 134.839C216.772 134.839 220.232 130.885 217.265 125.444C215.711 122.592 209.439 114.689 209.354 111.166C209.276 107.969 206.22 104.253 206.22 104.253C206.22 104.253 206.35 106.752 204.87 106.801C202.875 106.864 202.849 106.192 201.01 105.417C198.306 104.275 195.528 102.261 195.346 100.915C195.346 100.915 184.012 100.347 181.539 111.844C179.065 123.342 179.933 129.646 180.304 131.008C180.674 132.369 183.886 149.922 181.29 157.34C178.694 164.757 180.292 170.94 180.292 170.94Z" fill="#FF7C00"/>
        <path opacity="0.1" d="M198.773 150.742C200.817 154.19 203.552 157.179 206.806 159.52C208.976 159.538 211.144 159.683 213.297 159.954C213.111 158.99 212.926 157.892 212.803 156.646C212.497 154.094 212.425 151.519 212.588 148.954C212.232 148.776 211.918 148.523 211.668 148.214C211.417 147.904 211.235 147.545 211.134 147.159C210.515 145.056 205 135.043 205 135.043C205 135.043 192.098 131.705 191.649 135.043C191.2 138.381 195.558 145.179 198.773 150.742Z" fill="black"/>
        <path d="M203.049 128.801C203.049 128.801 210.837 143.536 211.442 145.639C211.599 146.222 211.939 146.741 212.411 147.118C212.883 147.496 213.464 147.713 214.068 147.738C214.068 147.738 221.826 149.592 223.681 149.841C225.535 150.089 241.62 151.446 241.62 151.446C241.62 151.446 245.7 151.573 246.193 150.089C246.645 148.732 254.526 141.6 259.088 147.823C259.509 148.399 259.788 149.065 259.902 149.769C260.017 150.473 259.964 151.193 259.748 151.873C258.91 154.543 257.189 158.782 255.342 156.145C252.746 152.437 249.727 153.479 249.727 155.456C249.727 157.432 245.574 156.698 244.216 156.976C243.474 157.128 240.923 157.807 238.716 158.4C236.149 159.094 233.519 159.53 230.865 159.702C226.485 159.988 220.028 160.225 217.739 159.361C214.98 158.311 210.162 158.07 208.097 158.015C207.414 157.998 206.754 157.761 206.216 157.34C203.355 155.099 200.936 152.346 199.081 149.221C195.865 143.658 189.253 132.139 189.698 128.801C190.143 125.463 203.049 128.801 203.049 128.801Z" fill="#BB6BD9" fill-opacity="0.92"/>
        <path opacity="0.1" d="M200.453 108.384C200.453 108.384 204.625 115.308 206.558 120.252C208.49 125.196 210.838 133.852 210.838 133.852L199.214 132.491L198.228 130.885C198.228 130.885 189.928 136.077 190.918 138.303C191.908 140.528 188.693 134.965 188.941 128.66C189.19 122.355 188.047 111.103 188.941 108.384C189.835 105.666 197.72 106.281 200.453 108.384Z" fill="black"/>
        <path d="M188.956 127.918C188.707 134.223 191.923 139.786 190.933 137.561C189.942 135.336 198.243 130.143 198.243 130.143L199.218 131.749L210.837 133.11C210.837 133.11 208.49 124.454 206.558 119.51C205.397 116.714 204.069 113.989 202.582 111.351C201.391 109.189 200.453 107.642 200.453 107.642C198.854 106.407 195.461 105.684 192.754 105.855C192.332 105.879 191.912 105.93 191.496 106.007C190.384 106.226 189.486 106.649 189.089 107.316C189.029 107.419 188.979 107.529 188.941 107.642C188.051 110.361 189.193 121.613 188.956 127.918Z" fill="#FF7C00"/>
        <path opacity="0.1" d="M183.764 145.179C183.764 145.179 188.678 151.947 190.161 152.133C190.15 152.147 183.845 150.742 183.764 145.179Z" fill="black"/>
        <path opacity="0.1" d="M183.764 154.821C183.764 154.821 193.036 164.186 196.003 164.279C198.969 164.371 183.764 154.821 183.764 154.821Z" fill="black"/>
        <path opacity="0.1" d="M183.764 158.73C183.764 158.73 189.698 165.684 190.069 165.684C190.44 165.684 183.66 163.274 183.764 158.73Z" fill="black"/>
        <path opacity="0.1" d="M189.078 107.316C190.032 107.174 190.953 106.865 191.8 106.404C192.119 106.237 192.435 106.051 192.742 105.855C193.958 105.041 195.091 104.109 196.125 103.073C197.831 101.416 199.533 99.6056 200.238 97.3322C200.396 96.8082 200.513 96.2725 200.586 95.73C201.009 92.878 200.653 89.7293 202.693 87.7896C203.076 87.4278 203.516 87.131 203.995 86.9106C206.887 85.5347 211.082 86.4248 213.241 83.9436C214.613 82.3711 214.579 80.1867 215.633 78.4769C216.093 77.7352 216.938 77.0936 217.687 76.4112C216.596 74.7503 215.148 73.3538 213.449 72.3238C211.749 71.2937 209.842 70.656 207.864 70.4571C205.887 70.2583 203.89 70.5033 202.02 71.1743C200.149 71.8453 198.452 72.9254 197.052 74.3358C195.652 75.7462 194.585 77.4513 193.928 79.3267C193.271 81.2021 193.04 83.2006 193.254 85.1763C193.468 87.152 194.119 89.0551 195.162 90.7469C196.205 92.4386 197.612 93.8762 199.281 94.9549C199.199 95.144 199.11 95.3257 199.018 95.5223C196.47 100.715 190.921 105.269 190.921 105.269L191.485 105.981C190.361 106.237 189.475 106.649 189.078 107.316Z" fill="black"/>
        <path d="M212.499 83.5802C209.988 86.4582 204.711 84.7818 201.948 87.4187C199.522 89.7293 200.487 93.7607 199.496 96.9613C198.792 99.2348 197.089 101.041 195.383 102.702C192.898 105.121 189.72 107.576 186.323 106.882C184.309 106.471 182.336 104.965 180.389 105.658C179.421 106.007 178.727 106.845 178.004 107.583C175.548 110.087 172.354 111.738 168.892 112.297C168.207 112.451 167.493 112.418 166.826 112.201C165.788 111.778 165.228 110.643 164.282 110.038C162.427 108.852 160.046 110.068 158.122 111.129C152.738 114.043 146.796 115.778 140.691 116.217C134.585 116.657 128.455 115.791 122.711 113.677L125.711 112.193C125.073 110.891 123.348 110.606 122.251 109.653C119.988 107.691 121.32 103.767 123.712 101.968C126.104 100.169 129.201 99.5426 131.678 97.8625C132.183 97.5213 132.694 97.0689 132.743 96.4643C132.735 96.0203 132.594 95.5889 132.338 95.2256C131.018 92.9002 129.557 90.4043 129.854 87.7451C130.306 83.6655 134.76 81.1584 138.851 80.8728C142.942 80.5872 146.992 81.8185 151.09 81.889C152.573 81.9149 154.127 81.7703 155.399 81.0026C157.176 79.9345 158.07 77.8984 159.149 76.1293C161.075 72.9883 163.836 70.4436 167.123 68.7786C170.831 66.9057 175.03 66.2492 178.887 64.699C182.826 63.119 186.408 60.6194 190.529 59.6143C196.511 58.1308 202.919 60.0705 208.086 63.4232C210.574 65.0365 218.522 70.2139 218.47 73.5258C218.429 75.4914 215.874 76.5558 214.906 78.0987C213.838 79.8232 213.871 82.0077 212.499 83.5802Z" fill="#FF1300"/>
        <g opacity="0.1">
            <path opacity="0.1" d="M131.975 93.3675C132.228 93.7318 132.369 94.1626 132.379 94.6063C132.364 94.7627 132.32 94.9149 132.249 95.055C131.159 93.1339 130.024 91.0978 129.842 88.9541C130.324 90.4858 131.174 91.9582 131.975 93.3675Z" fill="black"/>
            <path opacity="0.1" d="M121.887 107.795C122.981 108.748 124.706 109.033 125.347 110.335L124.287 110.862C123.572 110.526 122.892 110.119 122.258 109.649C121.856 109.29 121.542 108.844 121.341 108.344C121.14 107.844 121.058 107.304 121.101 106.767C121.29 107.16 121.557 107.509 121.887 107.795Z" fill="black"/>
            <path opacity="0.1" d="M157.758 109.274C159.683 108.214 162.068 106.997 163.918 108.184C164.86 108.788 165.424 109.923 166.462 110.346C167.128 110.564 167.841 110.597 168.524 110.443C171.988 109.884 175.182 108.232 177.641 105.729C178.36 104.987 179.054 104.153 180.025 103.804C181.961 103.11 183.934 104.616 185.959 105.028C189.356 105.721 192.531 103.266 195.02 100.848C196.726 99.1903 198.424 97.3804 199.129 95.1069C200.123 91.9063 199.159 87.8749 201.584 85.5644C204.355 82.9274 209.621 84.6038 212.136 81.7258C213.504 80.1533 213.474 77.9688 214.528 76.2591C215.418 74.8164 217.725 73.7928 218.051 72.0534C218.306 72.5074 218.447 73.0164 218.463 73.5369C218.422 75.5025 215.867 76.5669 214.899 78.1098C213.845 79.8195 213.875 82.004 212.506 83.5765C209.992 86.4544 204.718 84.7781 201.955 87.415C199.529 89.7256 200.494 93.757 199.5 96.9576C198.795 99.2311 197.097 101.037 195.391 102.699C192.902 105.117 189.727 107.572 186.33 106.878C184.313 106.467 182.339 104.961 180.396 105.655C179.424 106.003 178.731 106.841 178.011 107.579C175.553 110.083 172.359 111.735 168.895 112.293C168.212 112.448 167.499 112.414 166.833 112.197C165.795 111.774 165.231 110.639 164.289 110.035C162.435 108.848 160.054 110.064 158.129 111.125C152.746 114.04 146.804 115.774 140.698 116.214C134.592 116.653 128.463 115.787 122.718 113.673L124.791 112.646C130.237 114.282 135.953 114.826 141.611 114.248C147.268 113.669 152.755 111.979 157.758 109.274Z" fill="black"/>
        </g>
        <path opacity="0.1" d="M249.408 205.505L252.527 203.996V203.406C252.527 203.18 250.039 203.68 248.11 204.107C249.497 204.352 249.442 205.282 249.408 205.505Z" fill="black"/>
        <path d="M252.119 171.399C256.269 171.399 259.633 167.306 259.633 162.257C259.633 157.208 256.269 153.115 252.119 153.115C247.97 153.115 244.605 157.208 244.605 162.257C244.605 167.306 247.97 171.399 252.119 171.399Z" fill="#FF1300"/>
        <path d="M179.5 192L167.605 199L128.5 198.5L139.252 192H179.5Z" fill="white"/>
        <path d="M128.5 198.5V202H167.5V198.068L128.5 198.5Z" fill="white"/>
        <path opacity="0.3" d="M128.5 199V202H167.5V199H128.5Z" fill="#333333"/>
        <path d="M179.5 194.908V195L167.5 202V199L179.5 192V194.908Z" fill="#C4C4C4"/>
        <g clip-path="url(#clip1)">
            <path d="M163.102 195.506C163.102 196.91 159.035 198.048 154.02 198.048C149.004 198.048 144.938 196.91 144.938 195.506C144.938 194.101 149.004 192.963 154.02 192.963C159.035 192.963 163.102 194.101 163.102 195.506Z" fill="#F7AD3B"/>
            <path d="M158.409 197.732C157.108 197.934 155.612 198.048 154.02 198.048C149.004 198.048 144.938 196.91 144.938 195.505C144.938 195.06 145.348 194.641 146.067 194.277C145.84 194.511 145.719 194.758 145.719 195.013C145.719 196.569 150.222 197.83 155.777 197.83C156.688 197.83 157.57 197.796 158.409 197.732Z" fill="#F49F1F"/>
            <path d="M154.752 195.56L161.982 196.729C161.864 196.789 161.738 196.848 161.603 196.905L154.385 195.738V198.046C154.264 198.048 154.142 198.048 154.019 198.048C153.897 198.048 153.775 198.048 153.653 198.046V195.738L146.435 196.905C146.301 196.848 146.174 196.789 146.056 196.729L153.287 195.56L145.899 194.366C146.009 194.305 146.127 194.245 146.253 194.186L153.653 195.383V192.965C153.775 192.963 153.897 192.962 154.019 192.962C154.142 192.962 154.264 192.963 154.385 192.965V195.383L161.785 194.186C161.912 194.245 162.03 194.305 162.14 194.366L154.752 195.56Z" fill="#E2902A"/>
            <path d="M155.955 197.543C155.94 197.56 155.895 197.573 155.835 197.577C155.253 197.617 154.645 197.638 154.019 197.638C153.459 197.638 152.914 197.621 152.388 197.589C152.312 197.585 152.261 197.565 152.261 197.543C152.261 197.543 152.261 197.543 152.261 197.543C152.261 197.429 151.933 197.338 151.529 197.338C151.292 197.338 151.082 197.369 150.948 197.418C150.901 197.435 150.819 197.442 150.749 197.432C150.063 197.341 149.433 197.221 148.878 197.079C148.837 197.069 148.817 197.053 148.828 197.037C148.867 196.984 148.835 196.924 148.685 196.863C148.676 196.86 148.666 196.857 148.655 196.854C148.436 196.801 148.226 196.786 148.038 196.792C147.982 196.793 147.928 196.786 147.894 196.774C147.575 196.653 147.301 196.523 147.077 196.385C147.047 196.366 147.067 196.344 147.122 196.331C147.279 196.294 147.378 196.238 147.378 196.175C147.378 196.062 147.051 195.97 146.646 195.97C146.625 195.97 146.605 195.971 146.585 195.971C146.465 195.821 146.402 195.666 146.402 195.506C146.402 195.484 146.403 195.462 146.406 195.44C146.408 195.423 146.44 195.408 146.492 195.401C146.728 195.367 146.89 195.298 146.89 195.218C146.89 195.158 146.796 195.103 146.647 195.066C146.603 195.055 146.586 195.038 146.599 195.022C146.884 194.677 147.468 194.364 148.271 194.106C148.323 194.089 148.41 194.086 148.478 194.097C148.717 194.136 149.042 194.138 149.356 194.075C149.37 194.072 149.382 194.068 149.393 194.064C149.606 193.983 149.617 193.899 149.509 193.834C149.475 193.814 149.493 193.79 149.558 193.777C150.259 193.635 151.049 193.525 151.902 193.456C151.953 193.452 152.009 193.456 152.051 193.465C152.176 193.493 152.334 193.509 152.505 193.509C152.777 193.509 153.013 193.468 153.14 193.407C153.167 193.394 153.213 193.385 153.266 193.383C153.514 193.376 153.765 193.373 154.019 193.373C154.657 193.373 155.276 193.395 155.868 193.436C155.921 193.44 155.964 193.451 155.982 193.465C156.118 193.571 156.477 193.646 156.9 193.646C157.07 193.646 157.23 193.634 157.37 193.612C157.418 193.605 157.475 193.604 157.524 193.611C157.549 193.615 157.575 193.619 157.6 193.623C157.635 193.628 157.663 193.637 157.676 193.647C157.777 193.726 158.047 193.783 158.365 193.783C158.388 193.783 158.411 193.783 158.434 193.782C158.474 193.781 158.515 193.784 158.547 193.791C159.96 194.084 160.999 194.51 161.424 195.004C161.439 195.022 161.413 195.041 161.359 195.051C161.173 195.088 161.05 195.149 161.05 195.218C161.05 195.307 161.251 195.382 161.531 195.411C161.592 195.417 161.632 195.434 161.634 195.452C161.635 195.47 161.636 195.488 161.636 195.506C161.636 195.612 161.608 195.717 161.554 195.82C161.545 195.835 161.509 195.848 161.46 195.855C161.218 195.888 161.05 195.958 161.05 196.039C161.05 196.084 161.104 196.126 161.193 196.16C161.226 196.173 161.237 196.189 161.219 196.203C160.962 196.411 160.594 196.604 160.134 196.777C160.097 196.791 160.034 196.798 159.974 196.795C159.77 196.783 159.537 196.795 159.3 196.847C159.288 196.85 159.276 196.854 159.267 196.857C159.094 196.926 159.066 196.995 159.127 197.053C159.144 197.07 159.126 197.088 159.079 197.1C158.634 197.211 158.142 197.307 157.612 197.387C157.558 197.395 157.493 197.393 157.442 197.384C157.287 197.355 157.101 197.338 156.9 197.338C156.445 197.338 156.063 197.425 155.955 197.543Z" fill="#FDF164"/>
            <path d="M160.868 194.571C160.761 194.51 160.643 194.45 160.516 194.392L154.386 195.383V193.375C154.264 193.374 154.142 193.373 154.02 193.373C153.897 193.373 153.775 193.374 153.653 193.375V193.652C153.598 193.648 153.541 193.646 153.482 193.646C153.078 193.646 152.75 193.738 152.75 193.851C152.75 193.964 153.078 194.056 153.482 194.056C153.541 194.056 153.598 194.054 153.653 194.05V195.383L148.793 194.597C149.303 194.18 150.153 193.811 151.245 193.519C150.642 193.585 150.076 193.672 149.558 193.777C149.494 193.79 149.476 193.814 149.509 193.834C149.617 193.899 149.606 193.983 149.393 194.064C149.383 194.068 149.37 194.072 149.356 194.075C149.042 194.138 148.718 194.136 148.478 194.097C148.41 194.086 148.323 194.089 148.272 194.106C147.469 194.364 146.885 194.677 146.599 195.022C146.586 195.038 146.604 195.055 146.647 195.066C146.796 195.103 146.891 195.158 146.891 195.218C146.891 195.298 146.729 195.367 146.493 195.401C146.441 195.408 146.408 195.423 146.406 195.44C146.404 195.462 146.402 195.484 146.402 195.506C146.402 195.666 146.466 195.821 146.585 195.971C146.605 195.971 146.626 195.97 146.646 195.97C147.051 195.97 147.379 196.062 147.379 196.175C147.379 196.238 147.279 196.294 147.122 196.331C147.067 196.344 147.048 196.366 147.078 196.385C147.179 196.447 147.29 196.507 147.411 196.566C147.413 196.567 147.416 196.569 147.419 196.57C147.447 196.584 147.475 196.597 147.504 196.611C147.507 196.612 147.51 196.613 147.513 196.615C147.543 196.628 147.573 196.642 147.604 196.655C147.606 196.656 147.608 196.657 147.61 196.658C147.642 196.672 147.674 196.685 147.706 196.699C147.707 196.699 147.707 196.699 147.707 196.699C147.768 196.724 147.83 196.749 147.895 196.774C147.928 196.786 147.983 196.793 148.039 196.792C148.227 196.786 148.436 196.801 148.656 196.854C148.667 196.857 148.677 196.86 148.685 196.863C148.835 196.924 148.868 196.984 148.828 197.037C148.817 197.053 148.837 197.068 148.878 197.079C149.433 197.221 150.063 197.341 150.75 197.432C150.82 197.442 150.902 197.435 150.949 197.418C150.953 197.416 150.958 197.415 150.963 197.413C150.083 197.157 149.38 196.849 148.911 196.505L151.828 196.033C151.909 196.077 152.073 196.107 152.262 196.107C152.531 196.107 152.75 196.046 152.75 195.97C152.75 195.943 152.721 195.918 152.672 195.896L153.653 195.738V197.636C153.775 197.637 153.897 197.638 154.02 197.638C154.142 197.638 154.264 197.637 154.386 197.636V197.473C154.41 197.474 154.434 197.474 154.459 197.474C154.864 197.474 155.191 197.382 155.191 197.269C155.191 197.156 154.864 197.064 154.459 197.064C154.434 197.064 154.41 197.064 154.386 197.065V195.738L160.332 196.699C160.468 196.643 160.595 196.584 160.712 196.524L154.752 195.56L160.868 194.571ZM148.671 196.306C148.403 196.054 148.258 195.785 148.258 195.506C148.258 195.317 148.324 195.134 148.449 194.957C148.538 194.991 148.681 195.013 148.844 195.013C149.063 195.013 149.248 194.973 149.31 194.917L153.287 195.56L148.671 196.306ZM159.342 195.56C159.746 195.56 160.074 195.652 160.074 195.765C160.074 195.879 159.746 195.97 159.342 195.97C158.937 195.97 158.609 195.879 158.609 195.765C158.609 195.652 158.937 195.56 159.342 195.56ZM155.191 194.877C155.191 194.801 155.41 194.74 155.68 194.74C155.949 194.74 156.168 194.801 156.168 194.877C156.168 194.952 155.949 195.013 155.68 195.013C155.41 195.013 155.191 194.952 155.191 194.877ZM158.609 194.33C158.609 194.254 158.828 194.193 159.098 194.193C159.367 194.193 159.586 194.254 159.586 194.33C159.586 194.405 159.367 194.466 159.098 194.466C158.828 194.466 158.609 194.405 158.609 194.33Z" fill="#FDEE32"/>
            <path d="M159.051 193.74L156.383 194.487C156.322 194.504 156.223 194.504 156.161 194.487C156.161 194.487 156.161 194.487 156.16 194.487C155.362 194.263 155.362 193.901 156.16 193.677C156.959 193.454 158.253 193.454 159.052 193.677C159.052 193.677 159.052 193.677 159.053 193.677C159.114 193.695 159.112 193.722 159.051 193.74ZM154.749 196.105C154.749 196.105 154.749 196.105 154.748 196.105C154.687 196.122 154.689 196.15 154.75 196.167L157.418 196.914C157.479 196.931 157.578 196.932 157.64 196.915C157.64 196.915 157.64 196.915 157.641 196.915C158.439 196.691 158.439 196.328 157.641 196.105C156.842 195.881 155.548 195.881 154.749 196.105ZM151.31 195.354H147.537C147.451 195.354 147.379 195.373 147.379 195.397V195.398C147.379 195.714 148.294 195.97 149.424 195.97C150.553 195.97 151.468 195.714 151.468 195.398C151.468 195.398 151.468 195.398 151.468 195.397C151.468 195.373 151.396 195.354 151.31 195.354Z" fill="#F45751"/>
            <path d="M158.208 193.789L156.559 194.251C156.48 194.273 156.346 194.265 156.302 194.236C156.085 194.092 156.185 193.919 156.605 193.802C157.025 193.684 157.642 193.656 158.157 193.717C158.26 193.729 158.287 193.767 158.208 193.789ZM155.644 196.145C155.541 196.157 155.514 196.194 155.593 196.217L157.242 196.678C157.321 196.7 157.455 196.693 157.499 196.664C157.716 196.52 157.615 196.347 157.196 196.229C156.776 196.112 156.159 196.084 155.644 196.145ZM150.59 195.486H148.257C148.145 195.486 148.07 195.518 148.112 195.547C148.322 195.692 148.83 195.794 149.424 195.794C150.017 195.794 150.525 195.692 150.735 195.547C150.777 195.518 150.702 195.486 150.59 195.486Z" fill="#D73247"/>
            <path d="M151.529 194.74C150.855 194.74 150.309 194.587 150.309 194.398C150.309 194.209 150.855 194.056 151.529 194.056C152.204 194.056 152.75 194.209 152.75 194.398C152.75 194.587 152.204 194.74 151.529 194.74ZM152.506 196.517C151.832 196.517 151.285 196.67 151.285 196.859C151.285 197.048 151.832 197.201 152.506 197.201C153.18 197.201 153.727 197.048 153.727 196.859C153.727 196.67 153.18 196.517 152.506 196.517ZM159.342 194.603C158.668 194.603 158.121 194.756 158.121 194.945C158.121 195.134 158.668 195.287 159.342 195.287C160.016 195.287 160.562 195.134 160.562 194.945C160.562 194.756 160.016 194.603 159.342 194.603Z" fill="#F78D9A"/>
            <path d="M151.285 194.261C151.285 194.299 151.176 194.33 151.041 194.33C150.906 194.33 150.797 194.299 150.797 194.261C150.797 194.224 150.906 194.193 151.041 194.193C151.176 194.193 151.285 194.224 151.285 194.261ZM152.506 194.398C152.506 194.323 152.287 194.261 152.018 194.261C151.748 194.261 151.529 194.323 151.529 194.398C151.529 194.474 151.748 194.535 152.018 194.535C152.287 194.535 152.506 194.474 152.506 194.398ZM152.994 196.654C152.859 196.654 152.75 196.685 152.75 196.722C152.75 196.76 152.859 196.791 152.994 196.791C153.129 196.791 153.238 196.76 153.238 196.722C153.238 196.685 153.129 196.654 152.994 196.654ZM152.506 196.859C152.236 196.859 152.018 196.92 152.018 196.996C152.018 197.071 152.236 197.133 152.506 197.133C152.776 197.133 152.994 197.071 152.994 196.996C152.994 196.92 152.776 196.859 152.506 196.859ZM159.83 194.74C159.695 194.74 159.586 194.771 159.586 194.808C159.586 194.846 159.695 194.877 159.83 194.877C159.965 194.877 160.074 194.846 160.074 194.808C160.074 194.771 159.965 194.74 159.83 194.74ZM159.342 194.945C159.072 194.945 158.854 195.006 158.854 195.082C158.854 195.157 159.072 195.218 159.342 195.218C159.611 195.218 159.83 195.157 159.83 195.082C159.83 195.006 159.611 194.945 159.342 194.945Z" fill="#F47383"/>
            <path d="M157.144 195.423C157.144 195.499 156.707 195.56 156.168 195.56C155.628 195.56 155.191 195.499 155.191 195.423C155.191 195.348 155.628 195.287 156.168 195.287C156.707 195.287 157.144 195.348 157.144 195.423ZM152.893 194.78C152.512 194.887 152.357 195.017 152.548 195.07C152.738 195.123 153.202 195.08 153.583 194.973C153.965 194.866 154.119 194.737 153.929 194.683C153.738 194.63 153.274 194.673 152.893 194.78ZM155.05 196.91C154.669 197.017 154.515 197.147 154.705 197.2C154.896 197.254 155.36 197.21 155.741 197.103C156.122 196.997 156.277 196.867 156.086 196.813C155.895 196.76 155.432 196.803 155.05 196.91ZM149.536 196.301C148.997 196.301 148.56 196.362 148.56 196.438C148.56 196.513 148.997 196.574 149.536 196.574C150.076 196.574 150.513 196.513 150.513 196.438C150.513 196.362 150.076 196.301 149.536 196.301ZM160.56 195.697C160.37 195.644 159.906 195.687 159.525 195.794C159.143 195.901 158.989 196.031 159.179 196.084C159.37 196.138 159.834 196.094 160.215 195.987C160.596 195.881 160.751 195.751 160.56 195.697ZM149.33 194.353C149.139 194.299 148.675 194.342 148.294 194.449C147.913 194.556 147.758 194.686 147.949 194.739C148.139 194.793 148.603 194.749 148.985 194.643C149.366 194.536 149.521 194.406 149.33 194.353Z" fill="#23C77D"/>
        </g>
    </g>
    <defs>
        <clipPath id="clip0">
            <rect width="391.751" height="300" fill="white" transform="translate(0.5)"/>
        </clipPath>
        <clipPath id="clip1">
            <rect width="25" height="7" fill="white" transform="translate(141.5 192)"/>
        </clipPath>
    </defs>
</svg>
