<svg viewBox="0 0 50 70" fill="none" xmlns="http://www.w3.org/2000/svg">
    <g clip-path="url(#clip0)">
        <g clip-path="url(#clip1)">
            <path d="M37.1134 4.49863C36.4319 4.49863 35.7197 4.58878 34.98 4.72616C32.503 1.8387 28.8363 0 24.7423 0C20.6484 0 16.9815 1.8387 14.5046 4.72606C13.7649 4.58878 13.0526 4.49853 12.3712 4.49853C5.54962 4.49863 0 10.0482 0 16.8697C0 21.544 2.6359 25.7933 6.77425 27.8943L6.75232 44.8904C6.75127 46.1171 7.22784 47.2704 8.09442 48.138C8.96205 49.0068 10.1141 49.4845 11.341 49.4845H38.1481C40.6785 49.4845 42.7367 47.4263 42.7367 44.8959V27.8779C46.8597 25.7714 49.4846 21.5286 49.4846 16.8697C49.4845 10.0482 43.9349 4.49863 37.1134 4.49863ZM40.4874 44.896C40.4874 46.1853 39.4374 47.2354 38.148 47.2354H11.3409C10.716 47.2354 10.1284 46.9915 9.68576 46.549C9.2442 46.1064 9.00043 45.5188 9.00148 44.8928L9.00739 40.4874H40.4874V44.896ZM41.1837 26.1272C41.1243 26.1514 41.0683 26.1799 41.0156 26.214C40.8739 26.3018 40.7575 26.4183 40.6707 26.5522C40.5829 26.6851 40.5235 26.8389 40.4994 27.0036C40.4895 27.0662 40.4862 27.1289 40.4873 27.1925V38.238H9.01023L9.02468 27.2078C9.02573 27.1464 9.02246 27.0837 9.01371 27.0233C8.98957 26.853 8.92694 26.6949 8.83574 26.5576C8.75002 26.4291 8.63804 26.3171 8.50182 26.2314C8.44584 26.1963 8.38647 26.1655 8.32501 26.1402C4.6337 24.526 2.24926 20.8905 2.24926 16.8697C2.24926 11.2882 6.78965 6.7479 12.3711 6.7479C12.5893 6.7479 12.8195 6.77425 13.0455 6.79207C11.9076 8.76963 11.2464 11.0548 11.2464 13.4958C11.2464 14.1174 11.7495 14.6205 12.3711 14.6205C12.9928 14.6205 13.4958 14.1174 13.4958 13.4958C13.4958 7.29479 18.5413 2.24926 24.7423 2.24926C30.9433 2.24926 35.9887 7.29479 35.9887 13.4958C35.9887 14.1174 36.4918 14.6205 37.1134 14.6205C37.7351 14.6205 38.2381 14.1174 38.2381 13.4958C38.2381 11.0548 37.5769 8.76973 36.4391 6.79207C36.665 6.77425 36.8953 6.7479 37.1134 6.7479C42.695 6.7479 47.2353 11.2883 47.2353 16.8697C47.2353 20.8763 44.8607 24.5072 41.1837 26.1272Z" fill="#FF7C00" fill-opacity="0.5"/>
        </g>
        <path d="M16.2855 69.6291C20.6105 69.7017 23.2201 67.8411 24.7423 65.884C27.7559 69.8592 32.1041 69.4017 34.3347 69.6291C40.3753 69.5807 45.3609 64.6275 45.3609 58.5869V56.3398C45.3609 55.6632 44.8294 55.1317 44.1528 55.1317C43.4761 55.1317 42.9447 55.6632 42.9447 56.3398C42.9447 58.3454 41.3259 59.9642 39.3203 59.9642H38.5954C37.7738 59.9642 36.9766 59.6742 36.3242 59.1667L32.8366 56.4364C31.7977 55.5908 30.4688 55.1317 29.1157 55.1317C26.9653 55.1317 25.5639 56.219 24.7423 57.0405C23.9207 56.1949 22.5676 55.1317 20.3689 55.1317C19.0159 55.1317 17.6869 55.5908 16.648 56.4364L13.241 59.1667C12.5886 59.6742 11.7914 59.9642 10.9698 59.9642H10.2449C8.23936 59.9642 6.54002 58.3454 6.54002 56.3398C6.54002 55.6632 6.00852 55.1317 5.3319 55.1317C4.65527 55.1317 4.12378 55.6632 4.12378 56.3398V58.1762C4.12378 65.5699 8.94023 69.5326 16.2855 69.6291V69.6291Z" fill="#EB5757"/>
    </g>
    <defs>
        <clipPath id="clip0">
            <rect width="49.4845" height="69.6312" fill="white"/>
        </clipPath>
        <clipPath id="clip1">
            <rect width="49.4845" height="49.4845" fill="white"/>
        </clipPath>
    </defs>
</svg>
